<svg id="Layer_1" data-name="Layer 1" xmlns="http://www.w3.org/2000/svg" viewBox="0 0 932.92 916.24"><defs><style>.cls-1{fill:#e6e6e5;}.cls-2{fill:#f9a924;}.cls-3{fill:#403e56;}</style></defs><title>protocat</title><path class="cls-1" d="M660,552.76c-114.14,0-207-92.86-207-207s92.86-207,207-207,207,92.86,207,207S774.1,552.76,660,552.76Zm0-412c-113,0-205,92-205,205s92,205,205,205,205-92,205-205-92-205-205-205Z"/><path class="cls-1" d="M660,494.76c-82.16,0-149-66.84-149-149s66.84-149,149-149,149,66.85,149,149S742.12,494.76,660,494.76Zm0-296c-81.05,0-147,65.95-147,147s65.95,147,147,147,147-65.94,147-147-65.94-147-147-147Z"/><path class="cls-1" d="M660,436.11a90.35,90.35,0,1,1,90.34-90.35A90.35,90.35,0,0,1,660,436.11Zm0-178.69a88.35,88.35,0,1,0,88.34,88.34h0A88.44,88.44,0,0,0,660,257.42Z"/><circle class="cls-2" cx="659.96" cy="345.76" r="45.87"/><circle class="cls-2" cx="692.78" cy="141.4" r="14.55"/><circle class="cls-2" cx="510.41" cy="487.13" r="14.55"/><circle class="cls-1" cx="512.41" cy="362.13" r="14.55"/><circle class="cls-1" cx="784.41" cy="264.13" r="14.55"/><circle class="cls-1" cx="841.41" cy="445.13" r="14.55"/><circle class="cls-2" cx="799.07" cy="380.84" r="14.55"/><circle class="cls-2" cx="480.2" cy="242.1" r="14.55"/><circle class="cls-2" cx="714.04" cy="545.31" r="14.55"/><path class="cls-1" d="M103.59,774.27c14.42,19.31,44.35,21.34,44.35,21.34s6.56-29.27-7.86-48.59-44.35-21.34-44.35-21.34S89.17,755,103.59,774.27Z"/><path class="cls-1" d="M177.05,781.53c-9.52,12.74-29.27,14.08-29.27,14.08s-4.32-19.32,5.19-32.06,29.27-14.08,29.27-14.08S186.56,768.79,177.05,781.53Z"/><rect class="cls-3" x="102.42" y="793.68" width="664" height="2.24"/><path class="cls-2" d="M291.39,799.28,278,796.88l-2.51-4s-8.87-11.55-10.47-20.42-2.4-7.55.64-20.39c2.68-11.3,4.67-19.82,2.84-28.63s-1.86-9.85-13.9-23.3c-2.17-2.43-3.14-3.18-2.79-4.44s1.78-2.84,3.67-2.26c4.7,1.45,15.17,7.24,20.88,23s2.43,25.11.5,33.36-.49,13.63-.49,13.63-.34-5.7,6.28-13.27,12.61-16.59,14.2-21,2.22-6.94,2.22-6.94-6.86-6.44-7.67-11.71a54.31,54.31,0,0,1-.76-8.45S283.87,695,281.77,689s-5.56-9.78.17-21.67c.75-1.55,3.95,1.69,7.55,4.23,7.41,5.22,14,15.52,14,15.52a21.94,21.94,0,0,1,8.32-3.29,26,26,0,0,1,10.57.74s9.09-18.23,17.11-22.88c2.91-1.69,5.7,13.75,3.64,20.82-.95,3.22-1.93,7.57-3.53,10.37a13.58,13.58,0,0,1-2.55,2.82,2.6,2.6,0,0,0-.36,1.56s2.82,12.33.5,16.43l-5.05,9s3.55,12.54,3.3,18.29A145.18,145.18,0,0,1,333.93,757c-.64,3.58-3.15,17.71-3.15,17.71l0,6.58s8,3.06,7.49,5.9-1.13,6.25-6.72,5.18-7.38,4.19-8.6,4.64-7.76-1.57-9.7-.15,4,14.2-7,8.48S291.39,799.28,291.39,799.28Z"/></svg>
