<svg id="Layer_1" data-name="Layer 1" xmlns="http://www.w3.org/2000/svg" xmlns:xlink="http://www.w3.org/1999/xlink" viewBox="0 0 932.92 916.24"><defs><style>.cls-1{fill:#403e56;}.cls-2,.cls-5{fill:#f9a924;}.cls-2{opacity:0.04;}.cls-2,.cls-6,.cls-7,.cls-8{isolation:isolate;}.cls-3{opacity:0.7;}.cls-4{fill:url(#linear-gradient);}.cls-6{fill:#5d84c3;}.cls-6,.cls-7,.cls-8,.cls-9{opacity:0.5;}.cls-7{fill:#f16046;}.cls-10,.cls-8{fill:#6ec5a4;}</style><linearGradient id="linear-gradient" x1="378.33" y1="-4159.18" x2="538.81" y2="-4159.18" gradientTransform="matrix(1, 0, 0, -1, 0, -3698.97)" gradientUnits="userSpaceOnUse"><stop offset="0" stop-color="#818181" stop-opacity="0.25"/><stop offset="0.54" stop-color="#818181" stop-opacity="0.12"/><stop offset="1" stop-color="#818181" stop-opacity="0.1"/></linearGradient></defs><title>protocat</title><path class="cls-1" d="M464.81,101.56l-269.71,166s0,342.32,269.71,529c269.7-186.71,269.7-529,269.7-529Z"/><path class="cls-2" d="M466.42,101.56l-4.61,2.84V793.33c1.53,1.08,3.06,2.16,4.61,3.23,269.7-186.71,269.7-529,269.7-529Z"/><g class="cls-3"><polygon class="cls-4" points="399.51 437.88 450.36 484.49 513.38 393.57 538.81 414.75 450.36 526.86 378.33 446.36 399.51 437.88"/></g><polygon class="cls-5" points="411.51 440.69 452.76 478.49 511.19 392.57 531.81 409.75 452.76 512.86 394.33 447.56 411.51 440.69"/><path class="cls-6" d="M198.7,138.77a3.68,3.68,0,0,1-2-4.44,1.86,1.86,0,0,0,.08-.41h0A1.85,1.85,0,0,0,195,132a1.87,1.87,0,0,0-1.58.73h0a1.9,1.9,0,0,0-.2.37,3.68,3.68,0,0,1-4.45,2,1.77,1.77,0,0,0-.4-.08h0a1.84,1.84,0,0,0-2,1.73,1.81,1.81,0,0,0,.73,1.58h0a1.62,1.62,0,0,0,.36.21,3.66,3.66,0,0,1,2,4.44,1.85,1.85,0,0,0-.07.41h0a1.84,1.84,0,0,0,1.72,1.95,1.89,1.89,0,0,0,1.59-.73h0a1.9,1.9,0,0,0,.2-.37,3.66,3.66,0,0,1,4.44-2,1.86,1.86,0,0,0,.41.08h0a1.84,1.84,0,0,0,1.22-3.31h0A1.62,1.62,0,0,0,198.7,138.77Z"/><path class="cls-6" d="M52.7,463.77a3.68,3.68,0,0,1-2.05-4.44,1.86,1.86,0,0,0,.08-.41h0A1.85,1.85,0,0,0,49,457a1.87,1.87,0,0,0-1.58.73h0a1.9,1.9,0,0,0-.2.37,3.68,3.68,0,0,1-4.45,2,1.77,1.77,0,0,0-.4-.08h0a1.84,1.84,0,0,0-1.95,1.73,1.81,1.81,0,0,0,.73,1.58h0a1.62,1.62,0,0,0,.36.21,3.66,3.66,0,0,1,2,4.44,1.85,1.85,0,0,0-.07.41h0a1.84,1.84,0,0,0,1.72,2,1.89,1.89,0,0,0,1.59-.73h0a1.9,1.9,0,0,0,.2-.37,3.66,3.66,0,0,1,4.44-2,1.86,1.86,0,0,0,.41.08h0A1.84,1.84,0,0,0,53.06,464h0A1.62,1.62,0,0,0,52.7,463.77Z"/><circle class="cls-7" cx="781.81" cy="344.82" r="6"/><circle class="cls-7" cx="154.81" cy="773.82" r="6"/><circle class="cls-7" cx="883.81" cy="575.82" r="6"/><path class="cls-6" d="M737.7,167.77a3.68,3.68,0,0,1-2.05-4.44,1.86,1.86,0,0,0,.08-.41h0A1.85,1.85,0,0,0,734,161a1.87,1.87,0,0,0-1.58.73h0a1.9,1.9,0,0,0-.2.37,3.68,3.68,0,0,1-4.45,2,1.77,1.77,0,0,0-.4-.08h0a1.84,1.84,0,0,0-2,1.73,1.81,1.81,0,0,0,.73,1.58h0a1.62,1.62,0,0,0,.36.21,3.68,3.68,0,0,1,2,4.44,1.42,1.42,0,0,0-.08.41h0a1.84,1.84,0,0,0,1.72,1.95,1.89,1.89,0,0,0,1.59-.73h0a1.9,1.9,0,0,0,.2-.37,3.66,3.66,0,0,1,4.44-2,1.86,1.86,0,0,0,.41.08h0a1.84,1.84,0,0,0,1.22-3.31h0A1.62,1.62,0,0,0,737.7,167.77Z"/><path class="cls-6" d="M837.7,795.77a3.68,3.68,0,0,1-2.05-4.44,1.86,1.86,0,0,0,.08-.41h0A1.85,1.85,0,0,0,834,789a1.87,1.87,0,0,0-1.58.73h0a1.9,1.9,0,0,0-.2.37,3.68,3.68,0,0,1-4.45,2,1.77,1.77,0,0,0-.4-.08h0a1.84,1.84,0,0,0-2,1.73,1.81,1.81,0,0,0,.73,1.58h0a1.62,1.62,0,0,0,.36.21,3.68,3.68,0,0,1,2,4.44,1.42,1.42,0,0,0-.08.41h0a1.84,1.84,0,0,0,1.72,2,1.89,1.89,0,0,0,1.59-.73h0a1.9,1.9,0,0,0,.2-.37,3.66,3.66,0,0,1,4.44-2,1.86,1.86,0,0,0,.41.08h0a1.84,1.84,0,0,0,1.22-3.31h0A1.62,1.62,0,0,0,837.7,795.77Z"/><path class="cls-6" d="M45.7,273.77a3.68,3.68,0,0,1-2.05-4.44,1.86,1.86,0,0,0,.08-.41h0A1.85,1.85,0,0,0,42,267a1.87,1.87,0,0,0-1.58.73h0a1.9,1.9,0,0,0-.2.37,3.68,3.68,0,0,1-4.45,2,1.77,1.77,0,0,0-.4-.08h0a1.84,1.84,0,0,0-1.95,1.73,1.81,1.81,0,0,0,.73,1.58h0a1.62,1.62,0,0,0,.36.21,3.66,3.66,0,0,1,2,4.44,1.85,1.85,0,0,0-.07.41h0a1.84,1.84,0,0,0,1.72,2,1.89,1.89,0,0,0,1.59-.73h0a1.9,1.9,0,0,0,.2-.37,3.66,3.66,0,0,1,4.44-2,1.86,1.86,0,0,0,.41.08h0A1.84,1.84,0,0,0,46.06,274h0A1.62,1.62,0,0,0,45.7,273.77Z"/><circle class="cls-8" cx="112.81" cy="374.82" r="6"/><circle class="cls-8" cx="886.81" cy="422.82" r="6"/><g class="cls-9"><rect class="cls-10" x="616.81" y="90.82" width="3" height="17"/><rect class="cls-10" x="609.81" y="97.82" width="17" height="3"/></g><g class="cls-9"><rect class="cls-10" x="627.81" y="756.82" width="3" height="17"/><rect class="cls-10" x="620.81" y="763.82" width="17" height="3"/></g><g class="cls-9"><rect class="cls-10" x="59.81" y="792.82" width="3" height="17"/><rect class="cls-10" x="52.81" y="799.82" width="17" height="3"/></g><g class="cls-9"><rect class="cls-10" x="742.81" y="486.82" width="3" height="17"/><rect class="cls-10" x="735.81" y="493.82" width="17" height="3"/></g><polygon class="cls-8" points="829.01 213.84 835.46 219.74 844.59 206.32 847.81 209 835.46 225.11 826.33 214.91 829.01 213.84"/></svg>
