<svg id="Layer_1" data-name="Layer 1" xmlns="http://www.w3.org/2000/svg" viewBox="0 0 932.92 916.24"><defs><style>.cls-1{fill:#403e56;}.cls-2{fill:#f16584;}.cls-3{fill:#010101;opacity:0.1;isolation:isolate;}.cls-4{fill:#f9a924;}</style></defs><title>protocat</title><ellipse class="cls-1" cx="481.46" cy="832.94" rx="212.41" ry="7.59"/><circle class="cls-2" cx="382.44" cy="417.96" r="76.01"/><ellipse class="cls-1" cx="292.89" cy="807.13" rx="64.06" ry="5.9"/><path class="cls-1" d="M409.59,833.46s53.17-141.78,23.86-229S381,520.59,381,520.59s-39.53-10.23-88.61,19.76-62,38.86-90,26.59S169,535.58,100.81,537.63c0,0,36.13-19.77,71.57-2s59.3,27.27,95.43,0S353.7,472.87,402.09,494c0,0-35.44-34.76-47-34.76s-66.12-5.46-83.84-23.86c0,0-25.22-17.72-70.21,25.9s-34.08,43.63-74.3,40.22-71.57-23.18-71.57-23.18,47,19.09,75.66,9.55S184,442.2,209.19,429.93s40.22-28.63,74.3-10.91c0,0-14.32-58.62-41.58-53.85s13-13.63,13-13.63S247.36,252,233.05,245.2s-5.46-24.53-32-27.94c0,0,32.72-4.09,38.85,18.4s48.4,143.83,48.4,143.83,25.9,51.8,54.53,39.53-10.91-81.11-10.91-81.11l-49.07-22.5s36.8-1.36,59.3,19.77S366,424.47,366,424.47s56.58,8.18,70.21,38.86c0,0,8.86-27.27-8.18-43.63-4.26-4.09-8.73-11.2-13-19.57-16.5-32-22.09-68.51-16.91-104.15,2.54-17.44,4.11-34.49,1.33-38.51-6.14-8.86-32-63.39-34.09-77.7s2.05-44.31,2.05-44.31.68,36.81,8.86,48.4,31.35,68.84,31.35,68.84,0,72.26,19.09,107.7,55.89,75,53.85,100.88v15s40.9-38.85,38.17-51.81-6.13-43.62-32-62-42.94-47.72-24.53-90,18.4-49.76,18.4-49.76L468.21,275.2s-6.82,47,12.27,63.39,44.31,46.35,44.31,46.35l-5.46-98.16,17.73,38.86s38.17-49.08,83.16-65.44,72.93-73.62,72.93-73.62l38.17-30L700,194.08s-9.55,44.31-63.4,75.66S548,347.45,545.92,376.08s-4.09,53.85-4.09,53.85,100.88-3.41,123.37-47.72S689.74,250,711.55,235.66s62.72-32,62.72-32L728.6,241.11s-9.55,30.68-7.5,52.49-15,42.26-15,42.26l-13,38.17-14.31,32.72s58.62,1.37,89.29,36.13,107,45,107,45L832.2,499.45s-40.89-13.63-79.75-38.85-34.76-47.71-83.16-22.49-114.51,46.35-114.51,46.35,38.17-17.72,107,25.22-34.09-7.5-64.76,8.86-45-4.09-57.26,36.81S505,708,530.92,770.75l25.9,62.71Z"/><path class="cls-3" d="M666.24,382.21c-18.28,36-88.29,45-113.91,47.11-.72,9.24-1.2,15.08-1.2,15.08S652,441,674.51,396.69s24.54-132.24,46.35-146.55c2.31-1.52,4.84-3.08,7.51-4.65.75-2.75,1.26-4.38,1.26-4.38l45.67-37.49s-40.9,17.73-62.71,32S688.73,337.91,666.24,382.21Z"/><path class="cls-3" d="M548.69,313.35c-.15,16.78-2.33,26.76-2.33,26.76s38.16-49.05,83.13-65.42c2.66-1.68,5.36-3.34,8.12-4.95C691.46,238.39,701,194.08,701,194.08l31.36-37.49-38.18,30s-27.94,57.26-72.93,73.62C590.58,271.35,563.09,297.7,548.69,313.35Z"/><path class="cls-3" d="M489.79,475.76v15S530.68,451.9,528,439c-2.09-9.9-4.58-30.17-17.22-47.39,5.69,13,7.43,25.71,9,32.91,1.95,9.29-18.53,31.9-30.27,43.94A31.22,31.22,0,0,1,489.79,475.76Z"/><path class="cls-3" d="M434.93,372.85c.32.69.65,1.37,1,2,10.45,19.41,26.21,40,38,59C464.41,415.11,447.83,393.64,434.93,372.85Z"/><path class="cls-3" d="M468.16,343.83c-5.5-13.47-6.41-29.49-.09-48.27a147.36,147.36,0,0,1,1.17-20.36L480,229.28c-2,6.62-6.51,19.4-16.87,43.19C450,302.59,454.89,326.13,468.16,343.83Z"/><path class="cls-3" d="M769.16,442.88c-21.27-24.11-56-32.15-75.26-34.82l-5.76,13.17s58.62,1.36,89.3,36.13c17,19.27,48.06,31,72.35,37.63l26.39-7.12S799.84,477.64,769.16,442.88Z"/><path class="cls-3" d="M352.1,433.5c28.62-12.27-10.91-81.12-10.91-81.12l-1.08-.49c9.85,20.79,24.15,58.37,3.71,67.13-19.12,8.2-37-12.19-46.81-26.64.36,1,.55,1.58.55,1.58S323.47,445.77,352.1,433.5Z"/><path class="cls-3" d="M445.48,477.8s8.63-26.59-7.58-43c4,14.14-.69,28.53-.69,28.53-10.55-23.73-46.79-34-62.66-37.43.62,7.9.72,13.05.72,13.05S431.85,447.13,445.48,477.8Z"/><path class="cls-3" d="M480,229.28c1.53-5.14,1.53-6.57,1.53-6.57Z"/><path class="cls-3" d="M139.69,502.47l.42-.13c28.63-9.54,53.16-45.67,78.39-57.94s40.21-28.62,74.29-10.9c0,0-6-24.41-17.51-40.44a159.39,159.39,0,0,1,9.24,26c-34.08-17.72-49.08-1.36-74.3,10.91s-49.76,48.39-78.39,57.94-75.66-9.55-75.66-9.55,31.36,19.77,71.57,23.18C132.35,501.89,136.27,502.23,139.69,502.47Z"/><path class="cls-3" d="M423.88,833.46c12.49-38.29,42.52-144.16,18.87-214.56-10.21-30.4-19.67-49.78-27.68-62.15,6,11.71,12.53,27.19,19.41,47.68,29.31,87.25-23.86,229-23.86,229Z"/><path class="cls-3" d="M157.68,543.11a69.61,69.61,0,0,1,24,6.95c28,14,48.76,22.87,74.05,12.56,5.76-3,12.21-6.81,19.64-11.29l1.74-1.27c36.12-27.27,85.88-62.71,134.28-41.58,0,0-9.78-9.59-20.75-18.7-44.36-10.88-88.78,20.87-121.81,45.8-36.12,27.27-60,17.72-95.43,0s-71.57,2-71.57,2C128.18,536.84,145.15,539.2,157.68,543.11Z"/><path class="cls-3" d="M226.87,238.59a17.64,17.64,0,0,0,2.8,3.58A20.3,20.3,0,0,0,226.87,238.59Z"/><path class="cls-3" d="M351.41,349.66a33,33,0,0,1,3,3.18c-3-7.17-6.67-13.38-11.23-17.66-22.49-21.13-59.3-19.77-59.3-19.77L330,336.57A65.74,65.74,0,0,1,351.41,349.66Z"/><path class="cls-3" d="M400.4,257.47c2.78,4,1.22,21.07-1.32,38.51-5.19,35.64.41,72.13,16.9,104.15a123.09,123.09,0,0,0,7.26,12.47,173.14,173.14,0,0,1-15.89-102.14c2.54-17.44,4.1-34.49,1.32-38.51-6.13-8.86-32-63.39-34.08-77.71a99.33,99.33,0,0,1-.43-16.72c-5.29-15-5.8-42.06-5.8-42.06s-4.09,30-2,44.31S394.26,248.61,400.4,257.47Z"/><path class="cls-3" d="M464.35,163.24a19.85,19.85,0,0,0-1.24-3.92S463.63,160.79,464.35,163.24Z"/><path class="cls-3" d="M223.59,231.89c6,.73,12.92,2.58,18.19,6.85-.34-1.16-.64-2.2-.88-3.08-6.14-22.49-38.86-18.4-38.86-18.4C216.83,219.15,220.65,225.48,223.59,231.89Z"/><path class="cls-1" d="M393,804.33c4.86,18,21.51,29.09,21.51,29.09s8.76-18,3.9-36-21.5-29.1-21.5-29.1S388.15,786.37,393,804.33Z"/><path class="cls-4" d="M400.15,800.47c13.34,13,15,32.94,15,32.94s-20-1.09-33.32-14.07-15-32.94-15-32.94S386.81,787.49,400.15,800.47Z"/><path class="cls-4" d="M356,313.37c-1.16,18.57-15.24,32.81-15.24,32.81s-12.2-15.88-11-34.45,15.24-32.82,15.24-32.82S357.11,294.79,356,313.37Z"/><path class="cls-4" d="M209.2,195.94c15.74,9.92,21.48,29.11,21.48,29.11s-19.78,3.08-35.52-6.84-21.49-29.11-21.49-29.11S193.46,186,209.2,195.94Z"/><path class="cls-4" d="M174,422.4c15.74,9.92,21.49,29.1,21.49,29.1s-19.79,3.09-35.53-6.83-21.49-29.11-21.49-29.11S158.3,412.47,174,422.4Z"/><path class="cls-4" d="M257.8,509.26c15.74,9.92,21.49,29.1,21.49,29.1s-19.79,3.09-35.53-6.83-21.49-29.11-21.49-29.11S242.06,499.33,257.8,509.26Z"/><path class="cls-4" d="M494.1,229c-4.75,18-21.32,29.23-21.32,29.23s-8.88-17.95-4.13-35.94S490,193.1,490,193.1,498.85,211.05,494.1,229Z"/><path class="cls-4" d="M643.87,243.08c-5.58,17.75-22.66,28.2-22.66,28.2s-8-18.34-2.46-36.1S641.42,207,641.42,207,649.45,225.32,643.87,243.08Z"/><path class="cls-4" d="M805.75,440.68c-10.11,15.63-29.36,21.15-29.36,21.15s-2.86-19.82,7.25-35.45S813,405.24,813,405.24,815.86,425.05,805.75,440.68Z"/><path class="cls-4" d="M602.15,835.69l8.63-1.54,1.62-2.54s5.69-7.42,6.72-13.11,1.54-4.85-.41-13.1c-1.72-7.26-3-12.73-1.82-18.39s1.19-6.33,8.92-15c1.4-1.56,2-2,1.79-2.85a2,2,0,0,0-2.35-1.45c-3,.93-9.75,4.65-13.41,14.74s-1.57,16.13-.32,21.43a19.53,19.53,0,0,1,.31,8.75s.22-3.66-4-8.52-8.1-10.66-9.11-13.48-1.43-4.46-1.43-4.46,4.4-4.14,4.93-7.52a35.19,35.19,0,0,0,.48-5.43s4.32-4.55,5.67-8.38,3.57-6.28-.11-13.92c-.48-1-2.54,1.08-4.85,2.71-4.76,3.35-9,10-9,10a14.22,14.22,0,0,0-5.35-2.11,16.71,16.71,0,0,0-6.79.48s-5.84-11.71-11-14.7c-1.86-1.09-3.66,8.83-2.33,13.37.61,2.07,1.24,4.87,2.27,6.67a8.78,8.78,0,0,0,1.63,1.81,1.62,1.62,0,0,1,.23,1s-1.81,7.92-.32,10.55l3.25,5.75s-2.28,8-2.12,11.75a93.84,93.84,0,0,0,1,10.34c.42,2.29,2,11.37,2,11.37l0,4.23s-5.15,2-4.81,3.78.72,4,4.31,3.33,4.74,2.69,5.53,3,5-1,6.23-.1-2.56,9.13,4.5,5.45S602.15,835.69,602.15,835.69Z"/></svg>
