<svg id="Layer_1" data-name="Layer 1" xmlns="http://www.w3.org/2000/svg" viewBox="0 0 2789.9 751.85"><defs><style>.cls-1{fill:#403e56;}.cls-2{fill:#f9a924;}.cls-3{fill:none;opacity:0;}</style></defs><title>protocat</title><path class="cls-1" d="M1143.24,277.38h0c-15.68-17.5-114.59-127.83-136.08-151.89-1.67-1.87-3.77-3.46-4.6-5.86.92-1.71,2.34-1.3,3.54-1.24,29.1,1.55,133.82,7,140.15,7.3h0l-46.9-52.35c-4.92-5.35-10-10.53-14.7-16.11a14,14,0,0,0-11.27-5.56c-12.73-.37-25.44-1.33-38.16-2l-111.13-6.2-.78,0c-7.63-.34-7.71-.34-8.12,7.32q-3.42,63.09-6.78,126.17c-.45,8.53-.77,17.06-1.42,25.57a11.6,11.6,0,0,0,3,8.74c7.79,8.56,15.35,17.34,23,26l39,43.56h0c1.61-4.81,1.11-8.44,1.5-11.92,1.09-9.77,1.79-32.89,1.89-34.67q2.54-45.91,5.13-91.82c.08-1.46-.34-3.13,1.08-4.34,1.62-.37,2.24,1,3,1.89,30.72,34.22,126,140.43,139.06,155h0Z"/><path class="cls-1" d="M1891.39,276.14c-17-8.8-34.08-17.51-51.13-26.26a53.49,53.49,0,0,1-6.2-3.23c-6.4-4.45-13.07-5.72-20.31-2.28l-36.11,12.07h0c8.12,5.45,43.35,23.29,53.93,28.08h0c-4.76,3.79-195,64.52-265.45,87.18h0l8,25h0c74.78-24,265.59-84.82,265.59-84.82h0c-.29,4.57-21.87,42.92-26,53.63a1.72,1.72,0,0,0,2.39.75c13.35-4.28,26.7-8.6,40.07-12.84a13.58,13.58,0,0,0,4.7-2.62c7.91-17.47,17.38-34.14,25.93-51.28,2.43-4.87,5-9.65,7.45-14.53A6.63,6.63,0,0,0,1891.39,276.14Z"/><path class="cls-2" d="M1392.71,663.73l32-5.7,6-9.4s21.12-27.5,24.92-48.6,5.71-18-1.53-48.52c-6.37-26.89-11.11-47.18-6.75-68.15s4.42-23.43,33.07-55.44c5.17-5.78,7.48-7.57,6.64-10.58-.78-2.78-4.23-6.76-8.72-5.38-11.2,3.45-36.12,17.24-49.69,54.63s-5.79,59.75-1.19,79.38,1.15,32.44,1.15,32.44.82-13.55-15-31.56-30-39.49-33.77-50-5.31-16.52-5.31-16.52,16.33-15.32,18.28-27.87a128.28,128.28,0,0,0,1.78-20.12s16-16.83,21-31.05,13.24-23.26-.39-51.56c-1.78-3.7-9.4,4-18,10.05-17.64,12.42-33.35,36.94-33.35,36.94a52.35,52.35,0,0,0-19.81-7.82,61.84,61.84,0,0,0-25.15,1.76s-21.64-43.39-40.72-54.46c-6.91-4-13.57,32.72-8.65,49.54,2.25,7.67,4.58,18,8.39,24.7,1.74,3,4.11,4.67,6.07,6.71,1,1.08.85,3.7.85,3.7s-6.7,29.35-1.18,39.12l12,21.28s-8.45,29.84-7.85,43.54,2.08,29.79,3.61,38.29,7.49,42.14,7.49,42.14l.12,15.67s-19.06,7.27-17.81,14,2.68,14.88,16,12.32,17.58,10,20.48,11,18.48-3.72,23.08-.35-9.48,33.81,16.67,20.18S1392.71,663.73,1392.71,663.73Z"/><path class="cls-1" d="M1602.47,265.74l-237.81-137.3a16.57,16.57,0,0,0-16.57,0l-237.81,137.3A16.58,16.58,0,0,0,1102,280.1V554.7a16.57,16.57,0,0,0,8.29,14.35l237.81,137.3a16.57,16.57,0,0,0,16.57,0l237.81-137.3a16.57,16.57,0,0,0,8.29-14.35V280.1A16.6,16.6,0,0,0,1602.47,265.74Zm-36,263.4a16.57,16.57,0,0,1-8.29,14.36L1364.66,655.24a16.52,16.52,0,0,1-16.57,0L1154.54,543.5a16.57,16.57,0,0,1-8.29-14.36V305.65a16.57,16.57,0,0,1,8.29-14.35l193.55-111.75a16.57,16.57,0,0,1,16.57,0L1558.21,291.3a16.57,16.57,0,0,1,8.29,14.35Z"/><rect class="cls-3" x="482.03" y="38.16" width="1824" height="683.99"/></svg>