<svg id="Layer_1" data-name="Layer 1" xmlns="http://www.w3.org/2000/svg" viewBox="0 0 765.54 751.85"><defs><style>.cls-1{fill:#fff;}.cls-2{fill:#f9a924;}</style></defs><title>protocat</title><path class="cls-1" d="M421.67,545.14l21.89-3.9,4.09-6.43s14.46-18.83,17.06-33.28,3.91-12.3-1-33.22c-4.36-18.41-7.61-32.3-4.62-46.66s3-16,22.64-38c3.55-3.95,5.12-5.18,4.55-7.24-.53-1.9-2.9-4.63-6-3.68-7.67,2.36-24.73,11.8-34,37.4s-4,40.91-.82,54.35.79,22.21.79,22.21.56-9.28-10.23-21.61-20.55-27-23.13-34.21-3.63-11.31-3.63-11.31,11.18-10.49,12.51-19.08A88.74,88.74,0,0,0,423,386.74s11-11.52,14.37-21.25,9.06-15.93-.27-35.31c-1.22-2.53-6.43,2.75-12.3,6.88-12.07,8.51-22.83,25.3-22.83,25.3A35.9,35.9,0,0,0,388.36,357a42.36,42.36,0,0,0-17.22,1.21s-14.81-29.71-27.88-37.29c-4.73-2.75-9.29,22.4-5.92,33.92,1.54,5.25,3.14,12.34,5.75,16.91,1.19,2.08,2.81,3.2,4.15,4.59a4.13,4.13,0,0,1,.58,2.54S343.23,399,347,405.66l8.24,14.57s-5.79,20.43-5.38,29.81a238.37,238.37,0,0,0,2.47,26.22c1.05,5.83,5.13,28.85,5.13,28.85l.09,10.73s-13.06,5-12.2,9.61,1.83,10.18,10.94,8.43,12,6.83,14,7.56,12.66-2.55,15.81-.24-6.49,23.15,11.41,13.82S421.67,545.14,421.67,545.14Z"/><path class="cls-2" d="M763.1,279.77c-11.65-6-23.34-12-35-18a37,37,0,0,1-4.24-2.21c-4.39-3.05-9-3.92-13.91-1.56l-24.72,8.26h0c5.56,3.73,29.68,16,36.92,19.23h0c-2.71,2.15-93,31.21-151.19,49.88V282.48a11.37,11.37,0,0,0-5.68-9.83l-162.82-94a11.34,11.34,0,0,0-11.35,0L238.46,266.78c-23.31-26-69-77-80.77-90.16-1.14-1.28-2.58-2.37-3.15-4,.63-1.17,1.6-.89,2.42-.85,19.93,1.07,91.62,4.83,96,5h0l-32.11-35.84c-3.37-3.66-6.89-7.21-10.07-11a9.58,9.58,0,0,0-7.71-3.81c-8.72-.25-17.42-.91-26.13-1.4l-76.09-4.24c-.18,0-.35,0-.53,0-5.23-.24-5.28-.24-5.56,5q-2.34,43.19-4.64,86.39c-.31,5.83-.53,11.67-1,17.5a8,8,0,0,0,2,6c5.34,5.87,10.52,11.88,15.75,17.83L133.61,283h0c1.11-3.3.76-5.78,1-8.17.75-6.68,1.23-22.51,1.3-23.73q1.73-31.44,3.51-62.87c.06-1-.24-2.14.73-3,1.11-.25,1.54.69,2.08,1.29l81.58,90.91a11.28,11.28,0,0,0-1.22,5.07v188a11.35,11.35,0,0,0,5.67,9.83l162.82,94a11.39,11.39,0,0,0,11.35,0l162.82-94a11.36,11.36,0,0,0,5.68-9.83V354.27c59.57-19.07,156.78-50,156.78-50h0c-.2,3.13-15,29.39-17.83,36.72a1.16,1.16,0,0,0,1.63.51c9.14-2.93,18.28-5.88,27.44-8.78a9.24,9.24,0,0,0,3.21-1.8c5.42-12,11.9-23.38,17.76-35.11,1.66-3.33,3.45-6.61,5.1-9.95A4.54,4.54,0,0,0,763.1,279.77ZM535,462.82,402.46,539.33a11.34,11.34,0,0,1-11.35,0L258.59,462.82a11.33,11.33,0,0,1-5.67-9.82V300a11.35,11.35,0,0,1,5.67-9.83l132.52-76.51a11.34,11.34,0,0,1,11.35,0L535,290.15a11.35,11.35,0,0,1,5.67,9.83v45.14l-.25.08h0l.25.8V453A11.33,11.33,0,0,1,535,462.82Z"/></svg>
